<?xml version="1.0" encoding="UTF-8"?>
<svg id="Copy_Graphics" xmlns="http://www.w3.org/2000/svg" version="1.1" viewBox="0 0 277.91 54.06">
  <!-- Generator: Adobe Illustrator 29.7.0, SVG Export Plug-In . SVG Version: 2.1.1 Build 138)  -->
  <defs>
    <style>
      .st0 {
        fill: #7fc5ef;
      }

      .st1 {
        fill: #fff;
      }

      .st2 {
        fill: none;
        stroke: #020000;
        stroke-width: 3px;
      }
    </style>
  </defs>
  <g>
    <path class="st0" d="M245.64,7.02h18.35c7.94,0,13.92,5.81,13.92,13.52s-5.98,13.52-13.92,13.52h-9.43v12.65h-8.92V7.02ZM254.56,15.41v10.24h9.26c2.82,0,4.95-2.24,4.95-5.12s-2.13-5.12-4.95-5.12h-9.26Z"/>
    <polygon class="st1" points="202.73 15.1 243.63 15.1 243.63 6.64 193.83 6.64 193.83 46.7 243.63 46.7 243.63 38.24 202.52 38.24 202.52 38.11 202.52 35.27 202.52 30.9 243.63 30.9 243.63 22.44 202.52 22.44 202.52 15.31 202.73 15.1"/>
    <path class="st0" d="M158.82,6.64h17.61c7.96,0,13.94,5.75,13.94,13.41,0,5.63-3.31,10.1-8.3,12.02l9.52,14.63h-11.15l-8.42-13.7h-4.65v13.7h-8.55V6.64h0ZM167.36,15.12v10.04h8.88c2.79,0,4.88-2.15,4.88-4.99s-2.09-5.05-4.88-5.05c0,0-8.88,0-8.88,0Z"/>
  </g>
  <g>
    <path class="st0" d="M0,6.9h18.41c7.96,0,13.96,5.83,13.96,13.56s-6,13.56-13.96,13.56h-9.46v12.69H.01V6.9h-.01ZM8.94,15.32v10.27h9.29c2.83,0,4.96-2.25,4.96-5.14s-2.13-5.14-4.96-5.14h-9.29Z"/>
    <path class="st0" d="M34.05,6.9h8.34v39.81h-8.34V6.9Z"/>
    <path class="st0" d="M49.17,6.9h8.94v31.39h16.04v8.42h-24.99V6.9h0Z"/>
    <path class="st0" d="M124.78,15.32h-10.45V6.9h29.83v8.42h-10.45v31.39h-8.94V15.32h0Z"/>
    <g>
      <g>
        <path class="st1" d="M77.23,44.56c-.88,0-1.72-.38-2.29-1.06-3.9-4.61-6.04-10.46-6.04-16.47s2.14-11.86,6.04-16.47c.57-.68,1.41-1.06,2.29-1.06.8,0,1.56.31,2.13.88l.96.95c1.35,1.34,1.48,3.49.32,4.99-2.41,3.09-3.68,6.79-3.68,10.71s1.27,7.61,3.68,10.71c1.17,1.5,1.03,3.64-.32,4.99l-.96.96c-.56.56-1.32.88-2.12.88h0Z"/>
        <path class="st2" d="M77.23,44.56c-.88,0-1.72-.38-2.29-1.06-3.9-4.61-6.04-10.46-6.04-16.47s2.14-11.86,6.04-16.47c.57-.68,1.41-1.06,2.29-1.06.8,0,1.56.31,2.13.88l.96.95c1.35,1.34,1.48,3.49.32,4.99-2.41,3.09-3.68,6.79-3.68,10.71s1.27,7.61,3.68,10.71c1.17,1.5,1.03,3.64-.32,4.99l-.96.96c-.56.56-1.32.88-2.12.88h0Z"/>
      </g>
      <g>
        <path class="st1" d="M111.63,44.56c-.8,0-1.56-.31-2.12-.88l-.96-.95c-1.34-1.34-1.48-3.49-.32-4.99,2.41-3.09,3.68-6.8,3.68-10.71s-1.27-7.61-3.68-10.71c-1.16-1.5-1.03-3.64.32-4.99l.96-.96c.56-.57,1.32-.88,2.12-.88.88,0,1.72.38,2.29,1.06,3.9,4.61,6.04,10.46,6.04,16.47s-2.15,11.86-6.04,16.47c-.58.68-1.41,1.06-2.29,1.06h0Z"/>
        <path class="st2" d="M111.63,44.56c-.8,0-1.56-.31-2.12-.88l-.96-.95c-1.34-1.34-1.48-3.49-.32-4.99,2.41-3.09,3.68-6.8,3.68-10.71s-1.27-7.61-3.68-10.71c-1.16-1.5-1.03-3.64.32-4.99l.96-.96c.56-.57,1.32-.88,2.12-.88.88,0,1.72.38,2.29,1.06,3.9,4.61,6.04,10.46,6.04,16.47s-2.15,11.86-6.04,16.47c-.58.68-1.41,1.06-2.29,1.06h0Z"/>
      </g>
      <g>
        <path class="st1" d="M81.41,14.02c-1.01,0-1.96-.4-2.67-1.11l-.96-.96c-.59-.59-.91-1.41-.88-2.24.03-.83.42-1.62,1.05-2.16,4.61-3.9,10.46-6.05,16.47-6.05s11.86,2.15,16.47,6.04c.64.55,1.03,1.34,1.06,2.17.03.84-.28,1.65-.88,2.25l-.96.96c-.71.71-1.66,1.11-2.68,1.11-.83,0-1.66-.28-2.31-.79-3.09-2.4-6.8-3.68-10.7-3.68s-7.61,1.27-10.71,3.68c-.66.51-1.48.79-2.31.79h0Z"/>
        <path class="st2" d="M81.41,14.02c-1.01,0-1.96-.4-2.67-1.11l-.96-.96c-.59-.59-.91-1.41-.88-2.24.03-.83.42-1.62,1.05-2.16,4.61-3.9,10.46-6.05,16.47-6.05s11.86,2.15,16.47,6.04c.64.55,1.03,1.34,1.06,2.17.03.84-.28,1.65-.88,2.25l-.96.96c-.71.71-1.66,1.11-2.68,1.11-.83,0-1.66-.28-2.31-.79-3.09-2.4-6.8-3.68-10.7-3.68s-7.61,1.27-10.71,3.68c-.66.51-1.48.79-2.31.79h0Z"/>
      </g>
      <g>
        <path class="st1" d="M94.43,52.56c-6.01,0-11.86-2.15-16.47-6.04-.64-.54-1.03-1.33-1.06-2.17-.04-.84.28-1.65.88-2.25l.96-.96c.71-.71,1.66-1.11,2.67-1.11.83,0,1.65.28,2.31.79,3.09,2.41,6.8,3.68,10.71,3.68s7.61-1.27,10.71-3.68c.66-.51,1.48-.79,2.31-.79,1.01,0,1.96.39,2.68,1.11l.96.95c.59.59.91,1.41.88,2.25-.03.84-.42,1.63-1.06,2.17-4.6,3.89-10.45,6.04-16.46,6.04h-.02Z"/>
        <path class="st2" d="M94.43,52.56c-6.01,0-11.86-2.15-16.47-6.04-.64-.54-1.03-1.33-1.06-2.17-.04-.84.28-1.65.88-2.25l.96-.96c.71-.71,1.66-1.11,2.67-1.11.83,0,1.65.28,2.31.79,3.09,2.41,6.8,3.68,10.71,3.68s7.61-1.27,10.71-3.68c.66-.51,1.48-.79,2.31-.79,1.01,0,1.96.39,2.68,1.11l.96.95c.59.59.91,1.41.88,2.25-.03.84-.42,1.63-1.06,2.17-4.6,3.89-10.45,6.04-16.46,6.04h-.02Z"/>
      </g>
    </g>
  </g>
</svg>