<?xml version="1.0" encoding="UTF-8"?>
<svg id="Layer_1" xmlns="http://www.w3.org/2000/svg" version="1.1" viewBox="0 0 776.88 494.13">
  <!-- Generator: Adobe Illustrator 29.7.0, SVG Export Plug-In . SVG Version: 2.1.1 Build 138)  -->
  <defs>
    <style>
      .st0 {
        fill: none;
        stroke: #0b1220;
        stroke-width: 3px;
      }

      .st1, .st2 {
        fill: #7fc5ef;
      }

      .st3 {
        fill: #fff;
      }

      .st2 {
        stroke: #020000;
        stroke-miterlimit: 10;
        stroke-width: 2px;
      }
    </style>
  </defs>
  <path class="st1" d="M515.61,258.43h108.95c47.13,0,82.65,34.49,82.65,80.26s-35.52,80.26-82.65,80.26h-56.01v75.14h-52.94v-235.65ZM568.55,308.3v60.79h54.99c16.73,0,29.37-13.32,29.37-30.39s-12.64-30.39-29.37-30.39h-54.99Z"/>
  <polygon class="st3" points="260.79 306.45 503.63 306.45 503.63 256.19 207.93 256.19 207.93 494.09 503.63 494.09 503.63 443.83 259.53 443.83 259.53 443.11 259.53 426.24 259.53 400.27 503.63 400.27 503.63 350.01 259.53 350.01 259.53 307.71 260.79 306.45"/>
  <path class="st1" d="M0,256.19h104.54c47.24,0,82.75,34.13,82.75,79.65,0,33.45-19.65,60-49.3,71.38l56.54,86.9h-66.21l-50-81.38h-27.58v81.38H0v-237.94ZM50.75,306.54v59.65h52.76c16.54,0,28.96-12.76,28.96-29.65s-12.42-29.99-28.96-29.99h-52.76Z"/>
  <g>
    <path class="st1" d="M0,30.62h99.2c42.91,0,75.24,31.4,75.24,73.07s-32.34,73.07-75.24,73.07h-51v68.41H0V30.62ZM48.2,76.02v55.34h50.06c15.24,0,26.74-12.13,26.74-27.67s-11.5-27.67-26.74-27.67h-50.06Z"/>
    <g>
      <path class="st1" d="M183.53,30.62h44.93v214.55h-44.93V30.62Z"/>
      <line class="st2" x1="205.45" y1="245.16" x2="205.45" y2="30.87"/>
    </g>
    <path class="st1" d="M264.98,30.62h48.2v169.15h86.44v45.4h-134.64V30.62Z"/>
    <path class="st1" d="M672.4,76.02h-56.29V30.62h160.76v45.4h-56.29v169.15h-48.19V76.02Z"/>
    <g>
      <g>
        <path class="st3" d="M416.2,233.55c-4.75,0-9.24-2.07-12.32-5.69-21.01-24.84-32.57-56.36-32.57-88.76s11.56-63.92,32.54-88.73c3.09-3.65,7.59-5.73,12.35-5.73,4.33,0,8.4,1.69,11.45,4.76l5.15,5.14c7.25,7.25,7.99,18.8,1.71,26.87-12.97,16.66-19.83,36.61-19.83,57.69s6.85,41.02,19.83,57.69c6.28,8.07,5.54,19.62-1.71,26.87l-5.17,5.17c-3.03,3.04-7.1,4.73-11.43,4.73Z"/>
        <path class="st0" d="M416.2,233.55c-4.75,0-9.24-2.07-12.32-5.69-21.01-24.84-32.57-56.36-32.57-88.76s11.56-63.92,32.54-88.73c3.09-3.65,7.59-5.73,12.35-5.73,4.33,0,8.4,1.69,11.45,4.76l5.15,5.14c7.25,7.25,7.99,18.8,1.71,26.87-12.97,16.66-19.83,36.61-19.83,57.69s6.85,41.02,19.83,57.69c6.28,8.07,5.54,19.62-1.71,26.87l-5.17,5.17c-3.03,3.04-7.1,4.73-11.43,4.73Z"/>
      </g>
      <g>
        <path class="st3" d="M601.58,233.56c-4.33,0-8.39-1.69-11.45-4.76l-5.15-5.14c-7.25-7.25-7.99-18.79-1.72-26.86,12.97-16.67,19.83-36.62,19.83-57.7s-6.85-41.03-19.82-57.69c-6.28-8.09-5.53-19.64,1.72-26.87l5.15-5.16c3.04-3.05,7.11-4.74,11.44-4.74,4.75,0,9.24,2.07,12.33,5.69,21.01,24.85,32.57,56.36,32.57,88.77s-11.56,63.92-32.55,88.73c-3.11,3.65-7.6,5.73-12.35,5.73Z"/>
        <path class="st0" d="M601.58,233.56c-4.33,0-8.39-1.69-11.45-4.76l-5.15-5.14c-7.25-7.25-7.99-18.79-1.72-26.86,12.97-16.67,19.83-36.62,19.83-57.7s-6.85-41.03-19.82-57.69c-6.28-8.09-5.53-19.64,1.72-26.87l5.15-5.16c3.04-3.05,7.11-4.74,11.44-4.74,4.75,0,9.24,2.07,12.33,5.69,21.01,24.85,32.57,56.36,32.57,88.77s-11.56,63.92-32.55,88.73c-3.11,3.65-7.6,5.73-12.35,5.73Z"/>
      </g>
      <g>
        <path class="st3" d="M438.72,68.98c-5.43-.01-10.54-2.13-14.38-5.96l-5.19-5.2c-3.18-3.18-4.91-7.6-4.72-12.1.19-4.48,2.25-8.72,5.67-11.64C444.97,13.06,476.49,1.5,508.89,1.5s63.92,11.56,88.73,32.55c3.46,2.95,5.53,7.2,5.71,11.68.19,4.5-1.54,8.91-4.73,12.1l-5.17,5.17c-3.85,3.85-8.97,5.97-14.41,5.97-4.5,0-8.92-1.52-12.46-4.28-16.67-12.96-36.62-19.82-57.68-19.82s-41.02,6.86-57.69,19.83c-3.56,2.76-7.98,4.27-12.45,4.27h-.03Z"/>
        <path class="st0" d="M438.72,68.98c-5.43-.01-10.54-2.13-14.38-5.96l-5.19-5.2c-3.18-3.18-4.91-7.6-4.72-12.1.19-4.48,2.25-8.72,5.67-11.64C444.97,13.06,476.49,1.5,508.89,1.5s63.92,11.56,88.73,32.55c3.46,2.95,5.53,7.2,5.71,11.68.19,4.5-1.54,8.91-4.73,12.1l-5.17,5.17c-3.85,3.85-8.97,5.97-14.41,5.97-4.5,0-8.92-1.52-12.46-4.28-16.67-12.96-36.62-19.82-57.68-19.82s-41.02,6.86-57.69,19.83c-3.56,2.76-7.98,4.27-12.45,4.27h-.03Z"/>
      </g>
      <g>
        <path class="st3" d="M508.89,276.68c-32.41,0-63.92-11.56-88.73-32.55-3.44-2.92-5.53-7.18-5.71-11.68-.19-4.5,1.53-8.91,4.72-12.1l5.17-5.17c3.84-3.85,8.96-5.97,14.41-5.97,4.49,0,8.91,1.52,12.45,4.27,16.67,12.96,36.62,19.82,57.69,19.82s41.02-6.85,57.7-19.82c3.54-2.75,7.96-4.27,12.44-4.27,5.45,0,10.58,2.13,14.43,6l5.15,5.14c3.19,3.2,4.91,7.61,4.73,12.11-.19,4.51-2.27,8.77-5.73,11.68-24.8,20.98-56.31,32.54-88.72,32.54Z"/>
        <path class="st0" d="M508.89,276.68c-32.41,0-63.92-11.56-88.73-32.55-3.44-2.92-5.53-7.18-5.71-11.68-.19-4.5,1.53-8.91,4.72-12.1l5.17-5.17c3.84-3.85,8.96-5.97,14.41-5.97,4.49,0,8.91,1.52,12.45,4.27,16.67,12.96,36.62,19.82,57.69,19.82s41.02-6.85,57.7-19.82c3.54-2.75,7.96-4.27,12.44-4.27,5.45,0,10.58,2.13,14.43,6l5.15,5.14c3.19,3.2,4.91,7.61,4.73,12.11-.19,4.51-2.27,8.77-5.73,11.68-24.8,20.98-56.31,32.54-88.72,32.54Z"/>
      </g>
    </g>
  </g>
</svg>