<?xml version="1.0" encoding="UTF-8"?>
<svg id="Copy_Graphics" data-name="Copy &amp;amp; Graphics" xmlns="http://www.w3.org/2000/svg" viewBox="0 0 547.38 109.66">
  <defs>
    <style>
      .cls-1 {
        fill: #7fc5ef;
      }

      .cls-2 {
        fill: #fff;
      }

      .cls-3 {
        fill: none;
        stroke: #020000;
        stroke-width: 3px;
      }
    </style>
  </defs>
  <g>
    <path class="cls-1" d="M477.74,16.55h35.09c15.18,0,26.62,11.11,26.62,25.85s-11.44,25.85-26.62,25.85h-18.04v24.2h-17.05V16.55ZM494.79,32.61v19.58h17.71c5.39,0,9.46-4.29,9.46-9.79s-4.07-9.79-9.46-9.79h-17.71Z"/>
    <polygon class="cls-2" points="395.67 32.02 473.89 32.02 473.89 15.83 378.65 15.83 378.65 92.45 473.89 92.45 473.89 76.27 395.27 76.27 395.27 76.03 395.27 70.6 395.27 62.24 473.89 62.24 473.89 46.05 395.27 46.05 395.27 32.42 395.67 32.02"/>
    <path class="cls-1" d="M311.68,15.83h33.67c15.22,0,26.65,10.99,26.65,25.65,0,10.77-6.33,19.33-15.88,22.99l18.21,27.99h-21.32l-16.1-26.21h-8.88v26.21h-16.35V15.83ZM328.02,32.05v19.21h16.99c5.33,0,9.33-4.11,9.33-9.55s-4-9.66-9.33-9.66h-16.99Z"/>
  </g>
  <g>
    <path class="cls-1" d="M7.92,16.33h35.21c15.23,0,26.71,11.15,26.71,25.93s-11.48,25.93-26.71,25.93h-18.1v24.28H7.92V16.33ZM25.03,32.44v19.64h17.77c5.41,0,9.49-4.3,9.49-9.82s-4.08-9.82-9.49-9.82h-17.77Z"/>
    <path class="cls-1" d="M73.06,16.33h15.95v76.15h-15.95V16.33Z"/>
    <path class="cls-1" d="M101.97,16.33h17.11v60.04h30.68v16.11h-47.79V16.33Z"/>
    <path class="cls-1" d="M246.58,32.44h-19.98v-16.11h57.06v16.11h-19.98v60.04h-17.1v-60.04Z"/>
    <g>
      <g>
        <path class="cls-2" d="M155.64,88.35c-1.69,0-3.28-.74-4.37-2.02-7.46-8.82-11.56-20-11.56-31.5s4.1-22.69,11.55-31.49c1.1-1.3,2.69-2.03,4.38-2.03,1.54,0,2.98.6,4.06,1.69l1.83,1.83c2.57,2.57,2.84,6.67.61,9.54-4.6,5.91-7.04,13-7.04,20.48s2.43,14.56,7.04,20.48c2.23,2.86,1.97,6.96-.61,9.54l-1.84,1.83c-1.08,1.08-2.52,1.68-4.06,1.68Z"/>
        <path class="cls-3" d="M155.64,88.35c-1.69,0-3.28-.74-4.37-2.02-7.46-8.82-11.56-20-11.56-31.5s4.1-22.69,11.55-31.49c1.1-1.3,2.69-2.03,4.38-2.03,1.54,0,2.98.6,4.06,1.69l1.83,1.83c2.57,2.57,2.84,6.67.61,9.54-4.6,5.91-7.04,13-7.04,20.48s2.43,14.56,7.04,20.48c2.23,2.86,1.97,6.96-.61,9.54l-1.84,1.83c-1.08,1.08-2.52,1.68-4.06,1.68Z"/>
      </g>
      <g>
        <path class="cls-2" d="M221.44,88.36c-1.54,0-2.98-.6-4.06-1.69l-1.83-1.83c-2.57-2.57-2.83-6.67-.61-9.53,4.6-5.92,7.04-13,7.04-20.48s-2.43-14.56-7.04-20.48c-2.23-2.87-1.96-6.97.61-9.54l1.83-1.83c1.08-1.08,2.52-1.68,4.06-1.68,1.69,0,3.28.74,4.38,2.02,7.46,8.82,11.56,20,11.56,31.51s-4.1,22.69-11.55,31.49c-1.1,1.3-2.7,2.03-4.38,2.03Z"/>
        <path class="cls-3" d="M221.44,88.36c-1.54,0-2.98-.6-4.06-1.69l-1.83-1.83c-2.57-2.57-2.83-6.67-.61-9.53,4.6-5.92,7.04-13,7.04-20.48s-2.43-14.56-7.04-20.48c-2.23-2.87-1.96-6.97.61-9.54l1.83-1.83c1.08-1.08,2.52-1.68,4.06-1.68,1.69,0,3.28.74,4.38,2.02,7.46,8.82,11.56,20,11.56,31.51s-4.1,22.69-11.55,31.49c-1.1,1.3-2.7,2.03-4.38,2.03Z"/>
      </g>
      <g>
        <path class="cls-2" d="M163.64,29.95c-1.93,0-3.74-.76-5.1-2.12l-1.84-1.84c-1.13-1.13-1.74-2.7-1.67-4.29.07-1.59.8-3.1,2.01-4.13,8.82-7.46,20.01-11.57,31.51-11.57s22.69,4.1,31.49,11.55c1.23,1.05,1.96,2.56,2.03,4.15.07,1.6-.55,3.16-1.68,4.3l-1.83,1.84c-1.37,1.37-3.18,2.12-5.12,2.12-1.6,0-3.17-.54-4.42-1.52-5.91-4.6-13-7.03-20.47-7.03s-14.56,2.43-20.48,7.04c-1.27.98-2.83,1.52-4.42,1.52h-.01Z"/>
        <path class="cls-3" d="M163.64,29.95c-1.93,0-3.74-.76-5.1-2.12l-1.84-1.84c-1.13-1.13-1.74-2.7-1.67-4.29.07-1.59.8-3.1,2.01-4.13,8.82-7.46,20.01-11.57,31.51-11.57s22.69,4.1,31.49,11.55c1.23,1.05,1.96,2.56,2.03,4.15.07,1.6-.55,3.16-1.68,4.3l-1.83,1.84c-1.37,1.37-3.18,2.12-5.12,2.12-1.6,0-3.17-.54-4.42-1.52-5.91-4.6-13-7.03-20.47-7.03s-14.56,2.43-20.48,7.04c-1.27.98-2.83,1.52-4.42,1.52h-.01Z"/>
      </g>
      <g>
        <path class="cls-2" d="M188.54,103.66c-11.5,0-22.69-4.1-31.49-11.55-1.22-1.04-1.96-2.55-2.03-4.15-.07-1.6.54-3.16,1.68-4.3l1.84-1.84c1.36-1.36,3.18-2.12,5.12-2.12,1.59,0,3.16.54,4.42,1.52,5.92,4.6,13,7.04,20.48,7.04s14.56-2.43,20.48-7.04c1.25-.98,2.82-1.52,4.42-1.52,1.94,0,3.75.75,5.12,2.13l1.83,1.83c1.13,1.13,1.74,2.7,1.68,4.3-.07,1.6-.81,3.11-2.03,4.15-8.8,7.45-19.99,11.55-31.49,11.55Z"/>
        <path class="cls-3" d="M188.54,103.66c-11.5,0-22.69-4.1-31.49-11.55-1.22-1.04-1.96-2.55-2.03-4.15-.07-1.6.54-3.16,1.68-4.3l1.84-1.84c1.36-1.36,3.18-2.12,5.12-2.12,1.59,0,3.16.54,4.42,1.52,5.92,4.6,13,7.04,20.48,7.04s14.56-2.43,20.48-7.04c1.25-.98,2.82-1.52,4.42-1.52,1.94,0,3.75.75,5.12,2.13l1.83,1.83c1.13,1.13,1.74,2.7,1.68,4.3-.07,1.6-.81,3.11-2.03,4.15-8.8,7.45-19.99,11.55-31.49,11.55Z"/>
      </g>
    </g>
  </g>
</svg>