<?xml version="1.0" encoding="UTF-8"?>
<svg id="Copy_Graphics" xmlns="http://www.w3.org/2000/svg" version="1.1" viewBox="0 0 531.53 100.66">
  <!-- Generator: Adobe Illustrator 29.7.0, SVG Export Plug-In . SVG Version: 2.1.1 Build 138)  -->
  <defs>
    <style>
      .st0 {
        fill: #7fc5ef;
      }

      .st1 {
        fill: #fff;
      }

      .st2 {
        fill: none;
        stroke: #020000;
        stroke-width: 3px;
      }
    </style>
  </defs>
  <g>
    <path class="st0" d="M469.82,12.05h35.09c15.18,0,26.62,11.11,26.62,25.85s-11.44,25.85-26.62,25.85h-18.04v24.2h-17.05V12.05h0ZM486.87,28.11v19.58h17.71c5.39,0,9.46-4.29,9.46-9.79s-4.07-9.79-9.46-9.79h-17.71Z"/>
    <polygon class="st1" points="387.75 27.52 465.97 27.52 465.97 11.33 370.73 11.33 370.73 87.95 465.97 87.95 465.97 71.77 387.35 71.77 387.35 71.53 387.35 66.1 387.35 57.74 465.97 57.74 465.97 41.55 387.35 41.55 387.35 27.92 387.75 27.52"/>
    <path class="st0" d="M303.76,11.33h33.67c15.22,0,26.65,10.99,26.65,25.65,0,10.77-6.33,19.33-15.88,22.99l18.21,27.99h-21.32l-16.1-26.21h-8.88v26.21h-16.35V11.33h0ZM320.1,27.55v19.21h16.99c5.33,0,9.33-4.11,9.33-9.55s-4-9.66-9.33-9.66h-16.99Z"/>
  </g>
  <g>
    <path class="st0" d="M0,11.83h35.21c15.23,0,26.71,11.15,26.71,25.93s-11.48,25.93-26.71,25.93h-18.1v24.28H0V11.83ZM17.11,27.94v19.64h17.77c5.41,0,9.49-4.3,9.49-9.82s-4.08-9.82-9.49-9.82h-17.77Z"/>
    <path class="st0" d="M65.14,11.83h15.95v76.15h-15.95V11.83Z"/>
    <path class="st0" d="M94.05,11.83h17.11v60.04h30.68v16.11h-47.79s0-76.15,0-76.15Z"/>
    <path class="st0" d="M238.66,27.94h-19.98V11.83h57.06v16.11h-19.98v60.04h-17.1V27.94h0Z"/>
    <g>
      <g>
        <path class="st1" d="M147.72,83.85c-1.69,0-3.28-.74-4.37-2.02-7.46-8.82-11.56-20-11.56-31.5s4.1-22.69,11.55-31.49c1.1-1.3,2.69-2.03,4.38-2.03,1.54,0,2.98.6,4.06,1.69l1.83,1.83c2.57,2.57,2.84,6.67.61,9.54-4.6,5.91-7.04,13-7.04,20.48s2.43,14.56,7.04,20.48c2.23,2.86,1.97,6.96-.61,9.54l-1.84,1.83c-1.08,1.08-2.52,1.68-4.06,1.68v-.03Z"/>
        <path class="st2" d="M147.72,83.85c-1.69,0-3.28-.74-4.37-2.02-7.46-8.82-11.56-20-11.56-31.5s4.1-22.69,11.55-31.49c1.1-1.3,2.69-2.03,4.38-2.03,1.54,0,2.98.6,4.06,1.69l1.83,1.83c2.57,2.57,2.84,6.67.61,9.54-4.6,5.91-7.04,13-7.04,20.48s2.43,14.56,7.04,20.48c2.23,2.86,1.97,6.96-.61,9.54l-1.84,1.83c-1.08,1.08-2.52,1.68-4.06,1.68v-.03Z"/>
      </g>
      <g>
        <path class="st1" d="M213.52,83.86c-1.54,0-2.98-.6-4.06-1.69l-1.83-1.83c-2.57-2.57-2.83-6.67-.61-9.53,4.6-5.92,7.04-13,7.04-20.48s-2.43-14.56-7.04-20.48c-2.23-2.87-1.96-6.97.61-9.54l1.83-1.83c1.08-1.08,2.52-1.68,4.06-1.68,1.69,0,3.28.74,4.38,2.02,7.46,8.82,11.56,20,11.56,31.51s-4.1,22.69-11.55,31.49c-1.1,1.3-2.7,2.03-4.38,2.03h0Z"/>
        <path class="st2" d="M213.52,83.86c-1.54,0-2.98-.6-4.06-1.69l-1.83-1.83c-2.57-2.57-2.83-6.67-.61-9.53,4.6-5.92,7.04-13,7.04-20.48s-2.43-14.56-7.04-20.48c-2.23-2.87-1.96-6.97.61-9.54l1.83-1.83c1.08-1.08,2.52-1.68,4.06-1.68,1.69,0,3.28.74,4.38,2.02,7.46,8.82,11.56,20,11.56,31.51s-4.1,22.69-11.55,31.49c-1.1,1.3-2.7,2.03-4.38,2.03h0Z"/>
      </g>
      <g>
        <path class="st1" d="M155.72,25.45c-1.93,0-3.74-.76-5.1-2.12l-1.84-1.84c-1.13-1.13-1.74-2.7-1.67-4.29s.8-3.1,2.01-4.13c8.82-7.46,20.01-11.57,31.51-11.57s22.69,4.1,31.49,11.55c1.23,1.05,1.96,2.56,2.03,4.15.07,1.6-.55,3.16-1.68,4.3l-1.83,1.84c-1.37,1.37-3.18,2.12-5.12,2.12-1.6,0-3.17-.54-4.42-1.52-5.91-4.6-13-7.03-20.47-7.03s-14.56,2.43-20.48,7.04c-1.27.98-2.83,1.52-4.42,1.52h0v-.02Z"/>
        <path class="st2" d="M155.72,25.45c-1.93,0-3.74-.76-5.1-2.12l-1.84-1.84c-1.13-1.13-1.74-2.7-1.67-4.29s.8-3.1,2.01-4.13c8.82-7.46,20.01-11.57,31.51-11.57s22.69,4.1,31.49,11.55c1.23,1.05,1.96,2.56,2.03,4.15.07,1.6-.55,3.16-1.68,4.3l-1.83,1.84c-1.37,1.37-3.18,2.12-5.12,2.12-1.6,0-3.17-.54-4.42-1.52-5.91-4.6-13-7.03-20.47-7.03s-14.56,2.43-20.48,7.04c-1.27.98-2.83,1.52-4.42,1.52h0v-.02Z"/>
      </g>
      <g>
        <path class="st1" d="M180.62,99.16c-11.5,0-22.69-4.1-31.49-11.55-1.22-1.04-1.96-2.55-2.03-4.15-.07-1.6.54-3.16,1.68-4.3l1.84-1.84c1.36-1.36,3.18-2.12,5.12-2.12,1.59,0,3.16.54,4.42,1.52,5.92,4.6,13,7.04,20.48,7.04s14.56-2.43,20.48-7.04c1.25-.98,2.82-1.52,4.42-1.52,1.94,0,3.75.75,5.12,2.13l1.83,1.83c1.13,1.13,1.74,2.7,1.68,4.3-.07,1.6-.81,3.11-2.03,4.15-8.8,7.45-19.99,11.55-31.49,11.55h-.03Z"/>
        <path class="st2" d="M180.62,99.16c-11.5,0-22.69-4.1-31.49-11.55-1.22-1.04-1.96-2.55-2.03-4.15-.07-1.6.54-3.16,1.68-4.3l1.84-1.84c1.36-1.36,3.18-2.12,5.12-2.12,1.59,0,3.16.54,4.42,1.52,5.92,4.6,13,7.04,20.48,7.04s14.56-2.43,20.48-7.04c1.25-.98,2.82-1.52,4.42-1.52,1.94,0,3.75.75,5.12,2.13l1.83,1.83c1.13,1.13,1.74,2.7,1.68,4.3-.07,1.6-.81,3.11-2.03,4.15-8.8,7.45-19.99,11.55-31.49,11.55h-.03Z"/>
      </g>
    </g>
  </g>
</svg>