<?xml version="1.0" encoding="UTF-8"?>
<svg id="Copy_Graphics" data-name="Copy &amp;amp; Graphics" xmlns="http://www.w3.org/2000/svg" viewBox="0 0 301.45 70.88">
  <defs>
    <style>
      .cls-1 {
        fill: #7fc5ef;
      }

      .cls-2 {
        fill: #fff;
      }

      .cls-3 {
        fill: none;
        stroke: #020000;
        stroke-width: 3px;
      }
    </style>
  </defs>
  <g>
    <path class="cls-1" d="M257.41,15.43h18.35c7.94,0,13.92,5.81,13.92,13.52s-5.98,13.52-13.92,13.52h-9.43v12.65h-8.92V15.43ZM266.33,23.82v10.24h9.26c2.82,0,4.95-2.24,4.95-5.12s-2.13-5.12-4.95-5.12h-9.26Z"/>
    <polygon class="cls-2" points="214.5 23.51 255.4 23.51 255.4 15.05 205.6 15.05 205.6 55.11 255.4 55.11 255.4 46.65 214.29 46.65 214.29 46.52 214.29 43.68 214.29 39.31 255.4 39.31 255.4 30.85 214.29 30.85 214.29 23.72 214.5 23.51"/>
    <path class="cls-1" d="M170.59,15.05h17.61c7.96,0,13.94,5.75,13.94,13.41,0,5.63-3.31,10.1-8.3,12.02l9.52,14.63h-11.15l-8.42-13.7h-4.65v13.7h-8.55V15.05ZM179.13,23.53v10.04h8.88c2.79,0,4.88-2.15,4.88-4.99s-2.09-5.05-4.88-5.05h-8.88Z"/>
  </g>
  <g>
    <path class="cls-1" d="M11.77,15.31h18.41c7.96,0,13.96,5.83,13.96,13.56s-6,13.56-13.96,13.56h-9.46v12.69h-8.94V15.31ZM20.71,23.73v10.27h9.29c2.83,0,4.96-2.25,4.96-5.14s-2.13-5.14-4.96-5.14h-9.29Z"/>
    <path class="cls-1" d="M45.82,15.31h8.34v39.81h-8.34V15.31Z"/>
    <path class="cls-1" d="M60.94,15.31h8.94v31.39h16.04v8.42h-24.99V15.31Z"/>
    <path class="cls-1" d="M136.55,23.73h-10.45v-8.42h29.83v8.42h-10.45v31.39h-8.94v-31.39Z"/>
    <g>
      <g>
        <path class="cls-2" d="M89,52.97c-.88,0-1.72-.38-2.29-1.06-3.9-4.61-6.04-10.46-6.04-16.47s2.14-11.86,6.04-16.47c.57-.68,1.41-1.06,2.29-1.06.8,0,1.56.31,2.13.88l.96.95c1.35,1.34,1.48,3.49.32,4.99-2.41,3.09-3.68,6.79-3.68,10.71s1.27,7.61,3.68,10.71c1.17,1.5,1.03,3.64-.32,4.99l-.96.96c-.56.56-1.32.88-2.12.88Z"/>
        <path class="cls-3" d="M89,52.97c-.88,0-1.72-.38-2.29-1.06-3.9-4.61-6.04-10.46-6.04-16.47s2.14-11.86,6.04-16.47c.57-.68,1.41-1.06,2.29-1.06.8,0,1.56.31,2.13.88l.96.95c1.35,1.34,1.48,3.49.32,4.99-2.41,3.09-3.68,6.79-3.68,10.71s1.27,7.61,3.68,10.71c1.17,1.5,1.03,3.64-.32,4.99l-.96.96c-.56.56-1.32.88-2.12.88Z"/>
      </g>
      <g>
        <path class="cls-2" d="M123.4,52.97c-.8,0-1.56-.31-2.12-.88l-.96-.95c-1.34-1.34-1.48-3.49-.32-4.99,2.41-3.09,3.68-6.8,3.68-10.71s-1.27-7.61-3.68-10.71c-1.16-1.5-1.03-3.64.32-4.99l.96-.96c.56-.57,1.32-.88,2.12-.88.88,0,1.72.38,2.29,1.06,3.9,4.61,6.04,10.46,6.04,16.47s-2.15,11.86-6.04,16.47c-.58.68-1.41,1.06-2.29,1.06Z"/>
        <path class="cls-3" d="M123.4,52.97c-.8,0-1.56-.31-2.12-.88l-.96-.95c-1.34-1.34-1.48-3.49-.32-4.99,2.41-3.09,3.68-6.8,3.68-10.71s-1.27-7.61-3.68-10.71c-1.16-1.5-1.03-3.64.32-4.99l.96-.96c.56-.57,1.32-.88,2.12-.88.88,0,1.72.38,2.29,1.06,3.9,4.61,6.04,10.46,6.04,16.47s-2.15,11.86-6.04,16.47c-.58.68-1.41,1.06-2.29,1.06Z"/>
      </g>
      <g>
        <path class="cls-2" d="M93.18,22.43c-1.01,0-1.96-.4-2.67-1.11l-.96-.96c-.59-.59-.91-1.41-.88-2.24.03-.83.42-1.62,1.05-2.16,4.61-3.9,10.46-6.05,16.47-6.05s11.86,2.15,16.47,6.04c.64.55,1.03,1.34,1.06,2.17.03.84-.28,1.65-.88,2.25l-.96.96c-.71.71-1.66,1.11-2.68,1.11-.83,0-1.66-.28-2.31-.79-3.09-2.4-6.8-3.68-10.7-3.68s-7.61,1.27-10.71,3.68c-.66.51-1.48.79-2.31.79h0Z"/>
        <path class="cls-3" d="M93.18,22.43c-1.01,0-1.96-.4-2.67-1.11l-.96-.96c-.59-.59-.91-1.41-.88-2.24.03-.83.42-1.62,1.05-2.16,4.61-3.9,10.46-6.05,16.47-6.05s11.86,2.15,16.47,6.04c.64.55,1.03,1.34,1.06,2.17.03.84-.28,1.65-.88,2.25l-.96.96c-.71.71-1.66,1.11-2.68,1.11-.83,0-1.66-.28-2.31-.79-3.09-2.4-6.8-3.68-10.7-3.68s-7.61,1.27-10.71,3.68c-.66.51-1.48.79-2.31.79h0Z"/>
      </g>
      <g>
        <path class="cls-2" d="M106.2,60.97c-6.01,0-11.86-2.15-16.47-6.04-.64-.54-1.03-1.33-1.06-2.17-.04-.84.28-1.65.88-2.25l.96-.96c.71-.71,1.66-1.11,2.67-1.11.83,0,1.65.28,2.31.79,3.09,2.41,6.8,3.68,10.71,3.68s7.61-1.27,10.71-3.68c.66-.51,1.48-.79,2.31-.79,1.01,0,1.96.39,2.68,1.11l.96.95c.59.59.91,1.41.88,2.25-.03.84-.42,1.63-1.06,2.17-4.6,3.89-10.45,6.04-16.46,6.04Z"/>
        <path class="cls-3" d="M106.2,60.97c-6.01,0-11.86-2.15-16.47-6.04-.64-.54-1.03-1.33-1.06-2.17-.04-.84.28-1.65.88-2.25l.96-.96c.71-.71,1.66-1.11,2.67-1.11.83,0,1.65.28,2.31.79,3.09,2.41,6.8,3.68,10.71,3.68s7.61-1.27,10.71-3.68c.66-.51,1.48-.79,2.31-.79,1.01,0,1.96.39,2.68,1.11l.96.95c.59.59.91,1.41.88,2.25-.03.84-.42,1.63-1.06,2.17-4.6,3.89-10.45,6.04-16.46,6.04Z"/>
      </g>
    </g>
  </g>
</svg>