<?xml version="1.0" encoding="UTF-8"?>
<svg id="a" data-name="Copy Graphics" xmlns="http://www.w3.org/2000/svg" viewBox="0 0 194.9 50.42">
  <g>
    <path d="M27.01.03c2.21,0,4,1.78,4,4v18.13h-3.32v-7.74h-15.49v7.74h-3.32V4.03C8.88,1.81,10.66.03,12.88.03h14.14ZM27.69,11.09v-7.07c0-.37-.31-.68-.68-.68h-14.14c-.37,0-.68.31-.68.68v7.07h15.49Z" fill="#4889bb"/>
    <path d="M34.54,0h3.32v18.84h18.81v3.32h-22.13V0Z" fill="#4889bb"/>
    <path d="M58.48,0h3.32v18.84h18.81v3.32h-22.13V0Z" fill="#4889bb"/>
    <path d="M82.42.03h3.32v22.13h-3.32V.03Z" fill="#4889bb"/>
    <path d="M107.35.03c2.21,0,3.99,1.78,3.99,4v18.13h-3.32v-7.74h-15.49v7.74h-3.32V4.03c0-2.21,1.78-4,4-4h14.14ZM108.02,11.09v-7.07c0-.37-.31-.68-.68-.68h-14.14c-.37,0-.68.31-.68.68v7.07h15.49Z" fill="#4889bb"/>
    <path d="M133.65.03h3.32v22.13h-3.93l-14.87-17.7v17.7h-3.32V.03h3.93l14.87,17.7V.03Z" fill="#4889bb"/>
    <path d="M144.41,3.35c-.37,0-.68.31-.68.68v14.14c0,.37.31.68.68.68h18.07v3.32h-18.07c-2.21,0-3.99-1.78-3.99-4V4.03c0-2.21,1.78-4,3.99-4h18.07v3.32h-18.07Z" fill="#4889bb"/>
    <path d="M186.02,3.35h-16.96v6.08h16.96v3.32h-16.96v6.08h16.96v3.32h-20.28V.03h20.28v3.32Z" fill="#4889bb"/>
  </g>
  <g>
    <path d="M22.13,38.53c0,2.18-1.78,4-4,4h-2.24l6.24,7.44v.46h-3.93l-6.64-7.9H3.99c-.25,0-.46-.03-.68-.06v7.96H0v-22.1h18.13c2.21,0,4,1.81,4,4v6.21ZM18.13,39.2c.37,0,.68-.31.68-.68v-6.21c0-.37-.31-.68-.68-.68H3.99c-.37,0-.68.31-.68.68v6.21c0,.37.31.68.68.68h14.14Z" fill="#4889bb"/>
    <path d="M67.06,28.33c2.21,0,4,1.81,4,4v6.21c0,2.18-1.78,4-4,4h-14.14c-.25,0-.46-.03-.68-.06v7.96h-3.32v-22.1h18.13ZM67.73,32.32c0-.37-.31-.68-.68-.68h-14.14c-.37,0-.68.31-.68.68v6.21c0,.37.31.68.68.68h14.14c.37,0,.68-.31.68-.68v-6.21Z" fill="#4889bb"/>
    <path d="M95.21,33.58h-3.32v-1.29c0-.37-.31-.68-.68-.68h-14.14c-.37,0-.68.31-.68.68v4.73c0,.37.31.68.68.68h14.14c2.21,0,4,1.78,4,4v4.73c0,2.21-1.78,4-4,4h-14.14c-2.21,0-4-1.78-4-4v-1.29h3.32v1.29c0,.37.31.68.68.68h14.14c.37,0,.68-.31.68-.68v-4.73c0-.37-.31-.68-.68-.68h-14.14c-2.21,0-4-1.78-4-4v-4.73c0-2.21,1.78-4,4-4h14.14c2.21,0,4,1.78,4,4v1.29Z" fill="#4889bb"/>
    <path d="M102.49,31.61c-.37,0-.68.31-.68.68v14.14c0,.37.31.68.68.68h18.07v3.32h-18.07c-2.21,0-4-1.78-4-4v-14.14c0-2.21,1.78-4,4-4h18.07v3.32h-18.07Z" fill="#4889bb"/>
    <path d="M141.83,28.29c2.21,0,4,1.78,4,4v14.14c0,2.21-1.78,4-4,4h-14.14c-2.21,0-4-1.78-4-4v-14.14c0-2.21,1.78-4,4-4h14.14ZM141.83,47.1c.37,0,.68-.31.68-.68v-14.14c0-.37-.31-.68-.68-.68h-14.14c-.37,0-.68.31-.68.68v14.14c0,.37.31.68.68.68h14.14Z" fill="#4889bb"/>
    <path d="M171.3,38.53c0,2.18-1.78,4-4,4h-2.24l6.24,7.44v.46h-3.93l-6.64-7.9h-7.56c-.25,0-.46-.03-.68-.06v7.96h-3.32v-22.1h18.13c2.21,0,4,1.81,4,4v6.21ZM167.3,39.2c.37,0,.68-.31.68-.68v-6.21c0-.37-.31-.68-.68-.68h-14.14c-.37,0-.68.31-.68.68v6.21c0,.37.31.68.68.68h14.14Z" fill="#4889bb"/>
    <path d="M45.73,31.61h-16.96v6.08h16.96v3.32h-16.96v6.08h16.96v3.32h-20.28v-22.13h20.28v3.32Z" fill="#4889bb"/>
    <path d="M194.9,31.61h-16.96v6.08h16.96v3.32h-16.96v6.08h16.96v3.32h-20.28v-22.13h20.28v3.32Z" fill="#4889bb"/>
  </g>
</svg>