<?xml version="1.0" encoding="UTF-8"?>
<svg id="a" data-name="Copy Graphics" xmlns="http://www.w3.org/2000/svg" viewBox="0 0 384.12 22.16">
  <path d="M18.13.03c2.21,0,4,1.78,4,4v18.13h-3.32v-7.74H3.32v7.74H0V4.03C0,1.81,1.78.03,4,.03h14.14ZM18.81,11.09v-7.07c0-.37-.31-.68-.68-.68H4c-.37,0-.68.31-.68.68v7.07h15.49Z" fill="#4889bb"/>
  <path d="M25.66,0h3.32v18.84h18.81v3.32h-22.13V0Z" fill="#4889bb"/>
  <path d="M49.6,0h3.32v18.84h18.81v3.32h-22.13V0Z" fill="#4889bb"/>
  <path d="M73.54.03h3.32v22.13h-3.32V.03Z" fill="#4889bb"/>
  <path d="M98.47.03c2.21,0,3.99,1.78,3.99,4v18.13h-3.32v-7.74h-15.49v7.74h-3.32V4.03c0-2.21,1.78-4,4-4h14.14ZM99.14,11.09v-7.07c0-.37-.31-.68-.68-.68h-14.14c-.37,0-.68.31-.68.68v7.07h15.49Z" fill="#4889bb"/>
  <path d="M124.77.03h3.32v22.13h-3.93l-14.87-17.7v17.7h-3.32V.03h3.93l14.87,17.7V.03Z" fill="#4889bb"/>
  <path d="M135.53,3.35c-.37,0-.68.31-.68.68v14.14c0,.37.31.68.68.68h18.07v3.32h-18.07c-2.21,0-3.99-1.78-3.99-4V4.03c0-2.21,1.78-4,3.99-4h18.07v3.32h-18.07Z" fill="#4889bb"/>
  <path d="M211.34,10.26c0,2.18-1.78,4-4,4h-2.24l6.24,7.44v.46h-3.93l-6.64-7.9h-7.56c-.25,0-.46-.03-.68-.06v7.96h-3.32V.06h18.13c2.21,0,4,1.81,4,4v6.21ZM207.35,10.94c.37,0,.68-.31.68-.68v-6.21c0-.37-.31-.68-.68-.68h-14.14c-.37,0-.68.31-.68.68v6.21c0,.37.31.68.68.68h14.14Z" fill="#4889bb"/>
  <path d="M256.27.06c2.21,0,4,1.81,4,4v6.21c0,2.18-1.78,4-4,4h-14.14c-.25,0-.46-.03-.68-.06v7.96h-3.32V.06h18.13ZM256.95,4.06c0-.37-.31-.68-.68-.68h-14.14c-.37,0-.68.31-.68.68v6.21c0,.37.31.68.68.68h14.14c.37,0,.68-.31.68-.68v-6.21Z" fill="#4889bb"/>
  <path d="M284.42,5.32h-3.32v-1.29c0-.37-.31-.68-.68-.68h-14.14c-.37,0-.68.31-.68.68v4.73c0,.37.31.68.68.68h14.14c2.21,0,4,1.78,4,4v4.73c0,2.21-1.78,4-4,4h-14.14c-2.21,0-4-1.78-4-4v-1.29h3.32v1.29c0,.37.31.68.68.68h14.14c.37,0,.68-.31.68-.68v-4.73c0-.37-.31-.68-.68-.68h-14.14c-2.21,0-4-1.78-4-4v-4.73c0-2.21,1.78-4,4-4h14.14c2.21,0,4,1.78,4,4v1.29Z" fill="#4889bb"/>
  <path d="M291.71,3.35c-.37,0-.68.31-.68.68v14.14c0,.37.31.68.68.68h18.07v3.32h-18.07c-2.21,0-4-1.78-4-4V4.03c0-2.21,1.78-4,4-4h18.07v3.32h-18.07Z" fill="#4889bb"/>
  <path d="M331.05.03c2.21,0,4,1.78,4,4v14.14c0,2.21-1.78,4-4,4h-14.14c-2.21,0-4-1.78-4-4V4.03c0-2.21,1.78-4,4-4h14.14ZM331.05,18.84c.37,0,.68-.31.68-.68V4.03c0-.37-.31-.68-.68-.68h-14.14c-.37,0-.68.31-.68.68v14.14c0,.37.31.68.68.68h14.14Z" fill="#4889bb"/>
  <path d="M360.52,10.26c0,2.18-1.78,4-4,4h-2.24l6.24,7.44v.46h-3.93l-6.64-7.9h-7.56c-.25,0-.46-.03-.68-.06v7.96h-3.32V.06h18.13c2.21,0,4,1.81,4,4v6.21ZM356.52,10.94c.37,0,.68-.31.68-.68v-6.21c0-.37-.31-.68-.68-.68h-14.14c-.37,0-.68.31-.68.68v6.21c0,.37.31.68.68.68h14.14Z" fill="#4889bb"/>
  <path d="M234.95,3.35h-16.96v6.08h16.96v3.32h-16.96v6.08h16.96v3.32h-20.28V.03h20.28v3.32Z" fill="#4889bb"/>
  <path d="M177.14,3.35h-16.96v6.08h16.96v3.32h-16.96v6.08h16.96v3.32h-20.28V.03h20.28v3.32Z" fill="#4889bb"/>
  <path d="M384.12,3.35h-16.96v6.08h16.96v3.32h-16.96v6.08h16.96v3.32h-20.28V.03h20.28v3.32Z" fill="#4889bb"/>
</svg>