<?xml version="1.0" encoding="UTF-8"?>
<svg id="a" data-name="Copy Graphics" xmlns="http://www.w3.org/2000/svg" viewBox="0 0 254.52 51.06">
  <g>
    <path d="M4,3.32c-.37,0-.68.31-.68.68v14.14c0,.37.31.68.68.68h18.07v3.32H4c-2.21,0-4-1.78-4-4V4C0,1.78,1.78,0,4,0h18.07v3.32H4Z" fill="#4889bb"/>
    <path d="M43.33,0c2.21,0,4,1.78,4,4v14.14c0,2.21-1.78,4-4,4h-14.14c-2.21,0-3.99-1.78-3.99-4V4c0-2.21,1.78-4,3.99-4h14.14ZM43.33,18.81c.37,0,.68-.31.68-.68V4c0-.37-.31-.68-.68-.68h-14.14c-.37,0-.68.31-.68.68v14.14c0,.37.31.68.68.68h14.14Z" fill="#4889bb"/>
    <path d="M72.8,10.23c0,2.18-1.78,4-4,4h-2.24l6.24,7.44v.46h-3.93l-6.64-7.9h-7.56c-.25,0-.46-.03-.68-.06v7.96h-3.32V.03h18.13c2.21,0,4,1.81,4,4v6.21ZM68.81,10.91c.37,0,.68-.31.68-.68v-6.21c0-.37-.31-.68-.68-.68h-14.14c-.37,0-.68.31-.68.68v6.21c0,.37.31.68.68.68h14.14Z" fill="#4889bb"/>
    <path d="M94.19.03c2.21,0,3.99,1.81,3.99,4v6.21c0,2.18-1.78,4-3.99,4h-14.14c-.25,0-.46-.03-.68-.06v7.96h-3.32V.03h18.13ZM94.87,4.03c0-.37-.31-.68-.68-.68h-14.14c-.37,0-.68.31-.68.68v6.21c0,.37.31.68.68.68h14.14c.37,0,.68-.31.68-.68v-6.21Z" fill="#4889bb"/>
    <path d="M118.44,0c2.21,0,4,1.78,4,4v14.14c0,2.21-1.78,4-4,4h-14.14c-2.21,0-4-1.78-4-4V4c0-2.21,1.78-4,4-4h14.14ZM118.44,18.81c.37,0,.68-.31.68-.68V4c0-.37-.31-.68-.68-.68h-14.14c-.37,0-.68.31-.68.68v14.14c0,.37.31.68.68.68h14.14Z" fill="#4889bb"/>
    <path d="M147.91,10.23c0,2.18-1.78,4-4,4h-2.24l6.24,7.44v.46h-3.93l-6.64-7.9h-7.56c-.25,0-.46-.03-.68-.06v7.96h-3.32V.03h18.13c2.21,0,4,1.81,4,4v6.21ZM143.92,10.91c.37,0,.68-.31.68-.68v-6.21c0-.37-.31-.68-.68-.68h-14.14c-.37,0-.68.31-.68.68v6.21c0,.37.31.68.68.68h14.14Z" fill="#4889bb"/>
    <path d="M169.36,0c2.21,0,3.99,1.78,3.99,4v18.13h-3.32v-7.74h-15.49v7.74h-3.32V4c0-2.21,1.78-4,4-4h14.14ZM170.04,11.06V4c0-.37-.31-.68-.68-.68h-14.14c-.37,0-.68.31-.68.68v7.07h15.49Z" fill="#4889bb"/>
    <path d="M197.88,0v3.32h-9.4v18.81h-3.32V3.32h-9.4V0h22.13Z" fill="#4889bb"/>
    <path d="M200.22,0h3.32v22.13h-3.32V0Z" fill="#4889bb"/>
    <path d="M225.02,0c2.21,0,4,1.78,4,4v14.14c0,2.21-1.78,4-4,4h-14.14c-2.21,0-3.99-1.78-3.99-4V4c0-2.21,1.78-4,3.99-4h14.14ZM225.02,18.81c.37,0,.68-.31.68-.68V4c0-.37-.31-.68-.68-.68h-14.14c-.37,0-.68.31-.68.68v14.14c0,.37.31.68.68.68h14.14Z" fill="#4889bb"/>
    <path d="M251.2,0h3.32v22.13h-3.93l-14.87-17.7v17.7h-3.32V0h3.93l14.87,17.7V0Z" fill="#4889bb"/>
  </g>
  <g>
    <path d="M51.94,39.17c0,2.18-1.78,4-4,4h-2.24l6.24,7.44v.46h-3.93l-6.64-7.9h-7.56c-.25,0-.46-.03-.68-.06v7.96h-3.32v-22.1h18.13c2.21,0,4,1.81,4,4v6.21ZM47.94,39.84c.37,0,.68-.31.68-.68v-6.21c0-.37-.31-.68-.68-.68h-14.14c-.37,0-.68.31-.68.68v6.21c0,.37.31.68.68.68h14.14Z" fill="#4889bb"/>
    <path d="M96.87,28.96c2.21,0,4,1.81,4,4v6.21c0,2.18-1.78,4-4,4h-14.14c-.25,0-.46-.03-.68-.06v7.96h-3.32v-22.1h18.13ZM97.54,32.96c0-.37-.31-.68-.68-.68h-14.14c-.37,0-.68.31-.68.68v6.21c0,.37.31.68.68.68h14.14c.37,0,.68-.31.68-.68v-6.21Z" fill="#4889bb"/>
    <path d="M125.02,34.22h-3.32v-1.29c0-.37-.31-.68-.68-.68h-14.14c-.37,0-.68.31-.68.68v4.73c0,.37.31.68.68.68h14.14c2.21,0,4,1.78,4,4v4.73c0,2.21-1.78,4-4,4h-14.14c-2.21,0-4-1.78-4-4v-1.29h3.32v1.29c0,.37.31.68.68.68h14.14c.37,0,.68-.31.68-.68v-4.73c0-.37-.31-.68-.68-.68h-14.14c-2.21,0-4-1.78-4-4v-4.73c0-2.21,1.78-4,4-4h14.14c2.21,0,4,1.78,4,4v1.29Z" fill="#4889bb"/>
    <path d="M132.3,32.25c-.37,0-.68.31-.68.68v14.14c0,.37.31.68.68.68h18.07v3.32h-18.07c-2.21,0-4-1.78-4-4v-14.14c0-2.21,1.78-4,4-4h18.07v3.32h-18.07Z" fill="#4889bb"/>
    <path d="M171.64,28.93c2.21,0,4,1.78,4,4v14.14c0,2.21-1.78,4-4,4h-14.14c-2.21,0-4-1.78-4-4v-14.14c0-2.21,1.78-4,4-4h14.14ZM171.64,47.74c.37,0,.68-.31.68-.68v-14.14c0-.37-.31-.68-.68-.68h-14.14c-.37,0-.68.31-.68.68v14.14c0,.37.31.68.68.68h14.14Z" fill="#4889bb"/>
    <path d="M201.11,39.17c0,2.18-1.78,4-4,4h-2.24l6.24,7.44v.46h-3.93l-6.64-7.9h-7.56c-.25,0-.46-.03-.68-.06v7.96h-3.32v-22.1h18.13c2.21,0,4,1.81,4,4v6.21ZM197.11,39.84c.37,0,.68-.31.68-.68v-6.21c0-.37-.31-.68-.68-.68h-14.14c-.37,0-.68.31-.68.68v6.21c0,.37.31.68.68.68h14.14Z" fill="#4889bb"/>
    <path d="M75.54,32.25h-16.96v6.08h16.96v3.32h-16.96v6.08h16.96v3.32h-20.28v-22.13h20.28v3.32Z" fill="#4889bb"/>
    <path d="M224.71,32.25h-16.96v6.08h16.96v3.32h-16.96v6.08h16.96v3.32h-20.28v-22.13h20.28v3.32Z" fill="#4889bb"/>
  </g>
</svg>