<?xml version="1.0" encoding="UTF-8"?>
<svg id="a" data-name="Copy Graphics" xmlns="http://www.w3.org/2000/svg" viewBox="0 0 237 22.16">
  <path d="M21.11.03h3.96v22.13h-3.32V4.46l-9.22,10.97L3.32,4.46v17.7H0V.03h3.93l8.6,10.23L21.11.03Z" fill="#4889bb"/>
  <path d="M51.05.03l-10.2,13.83v8.3h-3.32v-8.3L27.32.03h3.9l7.96,10.08L47.11.03h3.93Z" fill="#4889bb"/>
  <path d="M80.33.06c2.21,0,3.99,1.81,3.99,4v6.21c0,2.18-1.78,4-3.99,4h-14.14c-.25,0-.46-.03-.68-.06v7.96h-3.32V.06h18.13ZM81.01,4.06c0-.37-.31-.68-.68-.68h-14.14c-.37,0-.68.31-.68.68v6.21c0,.37.31.68.68.68h14.14c.37,0,.68-.31.68-.68v-6.21Z" fill="#4889bb"/>
  <path d="M86.54.03h3.32v22.13h-3.32V.03Z" fill="#4889bb"/>
  <path d="M93.3,0h3.32v18.84h18.81v3.32h-22.13V0Z" fill="#4889bb"/>
  <path d="M135.28.03c2.21,0,4,1.78,4,4v14.14c0,2.21-1.78,4-4,4h-14.14c-2.21,0-3.99-1.78-3.99-4V4.03c0-2.21,1.78-4,3.99-4h14.14ZM135.28,18.84c.37,0,.68-.31.68-.68V4.03c0-.37-.31-.68-.68-.68h-14.14c-.37,0-.68.31-.68.68v14.14c0,.37.31.68.68.68h14.14Z" fill="#4889bb"/>
  <path d="M163.68.03v3.32h-9.4v18.81h-3.32V3.35h-9.4V.03h22.13Z" fill="#4889bb"/>
  <path d="M188.08,10.26c0,2.18-1.78,4-4,4h-2.24l6.24,7.44v.46h-3.93l-6.64-7.9h-7.56c-.25,0-.46-.03-.68-.06v7.96h-3.32V.06h18.13c2.21,0,4,1.81,4,4v6.21ZM184.08,10.94c.37,0,.68-.31.68-.68v-6.21c0-.37-.31-.68-.68-.68h-14.14c-.37,0-.68.31-.68.68v6.21c0,.37.31.68.68.68h14.14Z" fill="#4889bb"/>
  <path d="M233.01.06c2.21,0,4,1.81,4,4v6.21c0,2.18-1.78,4-4,4h-14.14c-.25,0-.46-.03-.68-.06v7.96h-3.32V.06h18.13ZM233.69,4.06c0-.37-.31-.68-.68-.68h-14.14c-.37,0-.68.31-.68.68v6.21c0,.37.31.68.68.68h14.14c.37,0,.68-.31.68-.68v-6.21Z" fill="#4889bb"/>
  <path d="M211.68,3.35h-16.96v6.08h16.96v3.32h-16.96v6.08h16.96v3.32h-20.28V.03h20.28v3.32Z" fill="#4889bb"/>
</svg>