<?xml version="1.0" encoding="UTF-8"?>
<svg id="a" xmlns="http://www.w3.org/2000/svg" version="1.1" viewBox="0 0 101.5 50.17">
  <!-- Generator: Adobe Illustrator 29.7.0, SVG Export Plug-In . SVG Version: 2.1.1 Build 138)  -->
  <defs>
    <style>
      .st0 {
        fill: #4889bb;
      }
    </style>
  </defs>
  <g>
    <path class="st0" d="M18.14.06c2.21,0,3.99,1.81,3.99,4v6.21c0,2.18-1.78,4-3.99,4H4c-.25,0-.46-.03-.68-.06v7.96H0V.06h18.14ZM18.82,4.06c0-.37-.31-.68-.68-.68H4c-.37,0-.68.31-.68.68v6.21c0,.37.31.68.68.68h14.14c.37,0,.68-.31.68-.68v-6.21Z"/>
    <path class="st0" d="M24.35.03h3.32v22.13h-3.32V.03Z"/>
    <path class="st0" d="M31.11,0h3.32v18.84h18.81v3.32h-22.13V0Z"/>
    <path class="st0" d="M73.09.03c2.21,0,4,1.78,4,4v14.14c0,2.21-1.78,4-4,4h-14.14c-2.21,0-4-1.78-4-4V4.03C54.95,1.82,56.73.03,58.95.03c0,0,14.14,0,14.14,0ZM73.09,18.84c.37,0,.68-.31.68-.68V4.03c0-.37-.31-.68-.68-.68h-14.14c-.37,0-.68.31-.68.68v14.14c0,.37.31.68.68.68h14.14Z"/>
    <path class="st0" d="M101.49.03v3.32h-9.4v18.81h-3.32V3.35h-9.4V.03h22.13,0Z"/>
  </g>
  <g>
    <path class="st0" d="M25.27,38.26c0,2.18-1.78,4-4,4h-2.24l6.24,7.44v.46h-3.93l-6.64-7.9h-7.57c-.25,0-.46-.03-.68-.06v7.96h-3.31v-22.1h18.13c2.21,0,4,1.81,4,4v6.21h0ZM21.27,38.94c.37,0,.68-.31.68-.68v-6.21c0-.37-.31-.68-.68-.68H7.14c-.37,0-.68.31-.68.68v6.21c0,.37.31.68.68.68,0,0,14.14,0,14.14,0Z"/>
    <path class="st0" d="M70.2,28.06c2.21,0,4,1.81,4,4v6.21c0,2.18-1.78,4-4,4h-14.14c-.25,0-.46-.03-.68-.06v7.96h-3.32v-22.1h18.14ZM70.88,32.06c0-.37-.31-.68-.68-.68h-14.14c-.37,0-.68.31-.68.68v6.21c0,.37.31.68.68.68h14.14c.37,0,.68-.31.68-.68v-6.21Z"/>
    <path class="st0" d="M98.35,33.32h-3.32v-1.29c0-.37-.31-.68-.68-.68h-14.14c-.37,0-.68.31-.68.68v4.73c0,.37.31.68.68.68h14.14c2.21,0,4,1.78,4,4v4.73c0,2.21-1.78,4-4,4h-14.14c-2.21,0-4-1.78-4-4v-1.29h3.32v1.29c0,.37.31.68.68.68h14.14c.37,0,.68-.31.68-.68v-4.73c0-.37-.31-.68-.68-.68h-14.14c-2.21,0-4-1.78-4-4v-4.73c0-2.21,1.78-4,4-4h14.14c2.21,0,4,1.78,4,4v1.29Z"/>
    <path class="st0" d="M48.88,31.35h-16.96v6.08h16.96v3.32h-16.96v6.08h16.96v3.32h-20.28v-22.13h20.28v3.32h0Z"/>
  </g>
</svg>