<?xml version="1.0" encoding="UTF-8"?>
<svg id="a" data-name="Copy Graphics" xmlns="http://www.w3.org/2000/svg" viewBox="0 0 307.56 22.16">
  <path d="M18.13.06c2.21,0,3.99,1.81,3.99,4v6.21c0,2.18-1.78,4-3.99,4H3.99c-.25,0-.46-.03-.68-.06v7.96H0V.06h18.13ZM18.81,4.06c0-.37-.31-.68-.68-.68H3.99c-.37,0-.68.31-.68.68v6.21c0,.37.31.68.68.68h14.14c.37,0,.68-.31.68-.68v-6.21Z" fill="#4889bb"/>
  <path d="M24.34.03h3.32v22.13h-3.32V.03Z" fill="#4889bb"/>
  <path d="M31.1,0h3.32v18.84h18.81v3.32h-22.13V0Z" fill="#4889bb"/>
  <path d="M73.08.03c2.21,0,4,1.78,4,4v14.14c0,2.21-1.78,4-4,4h-14.14c-2.21,0-4-1.78-4-4V4.03c0-2.21,1.78-4,4-4h14.14ZM73.08,18.84c.37,0,.68-.31.68-.68V4.03c0-.37-.31-.68-.68-.68h-14.14c-.37,0-.68.31-.68.68v14.14c0,.37.31.68.68.68h14.14Z" fill="#4889bb"/>
  <path d="M101.48.03v3.32h-9.4v18.81h-3.32V3.35h-9.4V.03h22.13Z" fill="#4889bb"/>
  <path d="M134.79,10.26c0,2.18-1.78,4-4,4h-2.24l6.24,7.44v.46h-3.93l-6.64-7.9h-7.56c-.25,0-.46-.03-.68-.06v7.96h-3.32V.06h18.13c2.21,0,4,1.81,4,4v6.21ZM130.79,10.94c.37,0,.68-.31.68-.68v-6.21c0-.37-.31-.68-.68-.68h-14.14c-.37,0-.68.31-.68.68v6.21c0,.37.31.68.68.68h14.14Z" fill="#4889bb"/>
  <path d="M179.72.06c2.21,0,4,1.81,4,4v6.21c0,2.18-1.78,4-4,4h-14.14c-.25,0-.46-.03-.68-.06v7.96h-3.32V.06h18.13ZM180.4,4.06c0-.37-.31-.68-.68-.68h-14.14c-.37,0-.68.31-.68.68v6.21c0,.37.31.68.68.68h14.14c.37,0,.68-.31.68-.68v-6.21Z" fill="#4889bb"/>
  <path d="M207.87,5.32h-3.32v-1.29c0-.37-.31-.68-.68-.68h-14.14c-.37,0-.68.31-.68.68v4.73c0,.37.31.68.68.68h14.14c2.21,0,4,1.78,4,4v4.73c0,2.21-1.78,4-4,4h-14.14c-2.21,0-4-1.78-4-4v-1.29h3.32v1.29c0,.37.31.68.68.68h14.14c.37,0,.68-.31.68-.68v-4.73c0-.37-.31-.68-.68-.68h-14.14c-2.21,0-4-1.78-4-4v-4.73c0-2.21,1.78-4,4-4h14.14c2.21,0,4,1.78,4,4v1.29Z" fill="#4889bb"/>
  <path d="M215.15,3.35c-.37,0-.68.31-.68.68v14.14c0,.37.31.68.68.68h18.07v3.32h-18.07c-2.21,0-4-1.78-4-4V4.03c0-2.21,1.78-4,4-4h18.07v3.32h-18.07Z" fill="#4889bb"/>
  <path d="M254.49.03c2.21,0,4,1.78,4,4v14.14c0,2.21-1.78,4-4,4h-14.14c-2.21,0-4-1.78-4-4V4.03c0-2.21,1.78-4,4-4h14.14ZM254.49,18.84c.37,0,.68-.31.68-.68V4.03c0-.37-.31-.68-.68-.68h-14.14c-.37,0-.68.31-.68.68v14.14c0,.37.31.68.68.68h14.14Z" fill="#4889bb"/>
  <path d="M283.96,10.26c0,2.18-1.78,4-4,4h-2.24l6.24,7.44v.46h-3.93l-6.64-7.9h-7.56c-.25,0-.46-.03-.68-.06v7.96h-3.32V.06h18.13c2.21,0,4,1.81,4,4v6.21ZM279.97,10.94c.37,0,.68-.31.68-.68v-6.21c0-.37-.31-.68-.68-.68h-14.14c-.37,0-.68.31-.68.68v6.21c0,.37.31.68.68.68h14.14Z" fill="#4889bb"/>
  <path d="M158.39,3.35h-16.96v6.08h16.96v3.32h-16.96v6.08h16.96v3.32h-20.28V.03h20.28v3.32Z" fill="#4889bb"/>
  <path d="M307.56,3.35h-16.96v6.08h16.96v3.32h-16.96v6.08h16.96v3.32h-20.28V.03h20.28v3.32Z" fill="#4889bb"/>
</svg>