<?xml version="1.0" encoding="UTF-8"?>
<svg id="a" data-name="Copy Graphics" xmlns="http://www.w3.org/2000/svg" viewBox="0 0 515.34 22.13">
  <path d="M284.12,10.23c0,2.18-1.78,4-4,4h-2.24l6.24,7.44v.46h-3.93l-6.64-7.9h-7.56c-.25,0-.46-.03-.68-.06v7.96h-3.32V.03h18.13c2.21,0,4,1.81,4,4v6.21ZM280.12,10.91c.37,0,.68-.31.68-.68v-6.21c0-.37-.31-.68-.68-.68h-14.14c-.37,0-.68.31-.68.68v6.21c0,.37.31.68.68.68h14.14Z" fill="#4889bb"/>
  <path d="M22.13,10.23c0,2.18-1.78,4-4,4h-2.24l6.24,7.44v.46h-3.93l-6.64-7.9H3.99c-.25,0-.46-.03-.68-.06v7.96H0V.03h18.13c2.21,0,4,1.81,4,4v6.21ZM18.13,10.91c.37,0,.68-.31.68-.68v-6.21c0-.37-.31-.68-.68-.68H3.99c-.37,0-.68.31-.68.68v6.21c0,.37.31.68.68.68h14.14Z" fill="#4889bb"/>
  <path d="M45.73,3.32h-16.96v6.08h16.96v3.32h-16.96v6.08h16.96v3.32h-20.28V0h20.28v3.32Z" fill="#4889bb"/>
  <path d="M307.72,3.32h-16.96v6.08h16.96v3.32h-16.96v6.08h16.96v3.32h-20.28V0h20.28v3.32Z" fill="#4889bb"/>
  <path d="M405.69,3.32h-16.96v6.08h16.96v3.32h-16.96v6.08h16.96v3.32h-20.28V0h20.28v3.32Z" fill="#4889bb"/>
  <path d="M67.06.03c2.21,0,3.99,1.81,3.99,4v6.21c0,2.18-1.78,4-3.99,4h-14.14c-.25,0-.46-.03-.68-.06v7.96h-3.32V.03h18.13ZM67.73,4.03c0-.37-.31-.68-.68-.68h-14.14c-.37,0-.68.31-.68.68v6.21c0,.37.31.68.68.68h14.14c.37,0,.68-.31.68-.68v-6.21Z" fill="#4889bb"/>
  <path d="M91.98,0h3.32v18.13c0,2.21-1.78,4-4,4h-14.14c-2.21,0-4-1.78-4-4V0h3.32v18.13c0,.37.31.68.68.68h14.14c.37,0,.68-.31.68-.68V0Z" fill="#4889bb"/>
  <path d="M119.7,0v3.32h-9.4v18.81h-3.32V3.32h-9.4V0h22.13Z" fill="#4889bb"/>
  <path d="M140.2,0c2.21,0,4,1.78,4,4v18.13h-3.32v-7.74h-15.49v7.74h-3.32V4c0-2.21,1.78-4,4-4h14.14ZM140.87,11.06V4c0-.37-.31-.68-.68-.68h-14.14c-.37,0-.68.31-.68.68v7.07h15.49Z" fill="#4889bb"/>
  <path d="M168.72,0v3.32h-9.4v18.81h-3.32V3.32h-9.4V0h22.13Z" fill="#4889bb"/>
  <path d="M171.05,0h3.32v22.13h-3.32V0Z" fill="#4889bb"/>
  <path d="M195.85,0c2.21,0,4,1.78,4,4v14.14c0,2.21-1.78,4-4,4h-14.14c-2.21,0-4-1.78-4-4V4c0-2.21,1.78-4,4-4h14.14ZM195.85,18.81c.37,0,.68-.31.68-.68V4c0-.37-.31-.68-.68-.68h-14.14c-.37,0-.68.31-.68.68v14.14c0,.37.31.68.68.68h14.14Z" fill="#4889bb"/>
  <path d="M222.04,0h3.32v22.13h-3.93l-14.87-17.7v17.7h-3.32V0h3.93l14.87,17.7V0Z" fill="#4889bb"/>
  <path d="M255.84.03c2.21,0,4,1.81,4,4v6.21c0,2.18-1.78,4-4,4h-14.14c-.25,0-.46-.03-.68-.06v7.96h-3.32V.03h18.13ZM256.52,4.03c0-.37-.31-.68-.68-.68h-14.14c-.37,0-.68.31-.68.68v6.21c0,.37.31.68.68.68h14.14c.37,0,.68-.31.68-.68v-6.21Z" fill="#4889bb"/>
  <path d="M314.91,3.32c-.37,0-.68.31-.68.68v14.14c0,.37.31.68.68.68h18.07v3.32h-18.07c-2.21,0-4-1.78-4-4V4c0-2.21,1.78-4,4-4h18.07v3.32h-18.07Z" fill="#4889bb"/>
  <path d="M356.52,3.32h-16.96v6.08h13.64v3.32h-13.64v6.08h16.96v3.32h-20.28V0h20.28v3.32Z" fill="#4889bb"/>
  <path d="M377.91,0c2.21,0,4,1.78,4,4v14.14c0,2.21-1.78,4-4,4h-18.13V0h18.13ZM378.59,4c0-.37-.31-.68-.68-.68h-14.14c-.37,0-.68.31-.68.68v14.14c0,.37.31.68.68.68h14.14c.37,0,.68-.31.68-.68V4Z" fill="#4889bb"/>
  <path d="M430.86,5.29h-3.32v-1.29c0-.37-.31-.68-.68-.68h-14.14c-.37,0-.68.31-.68.68v4.73c0,.37.31.68.68.68h14.14c2.21,0,4,1.78,4,4v4.73c0,2.21-1.78,4-4,4h-14.14c-2.21,0-4-1.78-4-4v-1.29h3.32v1.29c0,.37.31.68.68.68h14.14c.37,0,.68-.31.68-.68v-4.73c0-.37-.31-.68-.68-.68h-14.14c-2.21,0-4-1.78-4-4V4c0-2.21,1.78-4,4-4h14.14c2.21,0,4,1.78,4,4v1.29Z" fill="#4889bb"/>
  <path d="M465.59,0l-10.2,13.83v8.3h-3.32v-8.3l-10.2-13.83h3.9l7.96,10.08,7.93-10.08h3.93Z" fill="#4889bb"/>
  <path d="M485.9,0c2.21,0,4,1.78,4,4v14.14c0,2.21-1.78,4-4,4h-14.14c-2.21,0-4-1.78-4-4V4c0-2.21,1.78-4,4-4h14.14ZM485.9,18.81c.37,0,.68-.31.68-.68V4c0-.37-.31-.68-.68-.68h-14.14c-.37,0-.68.31-.68.68v14.14c0,.37.31.68.68.68h14.14Z" fill="#4889bb"/>
  <path d="M512.02,0h3.32v18.13c0,2.21-1.78,4-4,4h-14.14c-2.21,0-4-1.78-4-4V0h3.32v18.13c0,.37.31.68.68.68h14.14c.37,0,.68-.31.68-.68V0Z" fill="#4889bb"/>
</svg>