<?xml version="1.0" encoding="UTF-8"?>
<svg id="a" data-name="Copy Graphics" xmlns="http://www.w3.org/2000/svg" viewBox="0 0 277.63 50.13">
  <g>
    <path d="M48.26,10.23c0,2.18-1.78,4-4,4h-2.24l6.24,7.44v.46h-3.93l-6.64-7.9h-7.56c-.25,0-.46-.03-.68-.06v7.96h-3.32V.03h18.13c2.21,0,4,1.81,4,4v6.21ZM44.27,10.91c.37,0,.68-.31.68-.68v-6.21c0-.37-.31-.68-.68-.68h-14.14c-.37,0-.68.31-.68.68v6.21c0,.37.31.68.68.68h14.14Z" fill="#4889bb"/>
    <path d="M71.87,3.32h-16.96v6.08h16.96v3.32h-16.96v6.08h16.96v3.32h-20.28V0h20.28v3.32Z" fill="#4889bb"/>
    <path d="M93.2.03c2.21,0,3.99,1.81,3.99,4v6.21c0,2.18-1.78,4-3.99,4h-14.14c-.25,0-.46-.03-.68-.06v7.96h-3.32V.03h18.13ZM93.87,4.03c0-.37-.31-.68-.68-.68h-14.14c-.37,0-.68.31-.68.68v6.21c0,.37.31.68.68.68h14.14c.37,0,.68-.31.68-.68v-6.21Z" fill="#4889bb"/>
    <path d="M118.12,0h3.32v18.13c0,2.21-1.78,4-4,4h-14.14c-2.21,0-4-1.78-4-4V0h3.32v18.13c0,.37.31.68.68.68h14.14c.37,0,.68-.31.68-.68V0Z" fill="#4889bb"/>
    <path d="M145.84,0v3.32h-9.4v18.81h-3.32V3.32h-9.4V0h22.13Z" fill="#4889bb"/>
    <path d="M166.34,0c2.21,0,4,1.78,4,4v18.13h-3.32v-7.74h-15.49v7.74h-3.32V4c0-2.21,1.78-4,4-4h14.14ZM167.01,11.06V4c0-.37-.31-.68-.68-.68h-14.14c-.37,0-.68.31-.68.68v7.07h15.49Z" fill="#4889bb"/>
    <path d="M194.86,0v3.32h-9.4v18.81h-3.32V3.32h-9.4V0h22.13Z" fill="#4889bb"/>
    <path d="M197.19,0h3.32v22.13h-3.32V0Z" fill="#4889bb"/>
    <path d="M221.99,0c2.21,0,4,1.78,4,4v14.14c0,2.21-1.78,4-4,4h-14.14c-2.21,0-4-1.78-4-4V4c0-2.21,1.78-4,4-4h14.14ZM221.99,18.81c.37,0,.68-.31.68-.68V4c0-.37-.31-.68-.68-.68h-14.14c-.37,0-.68.31-.68.68v14.14c0,.37.31.68.68.68h14.14Z" fill="#4889bb"/>
    <path d="M248.18,0h3.32v22.13h-3.93l-14.87-17.7v17.7h-3.32V0h3.93l14.87,17.7V0Z" fill="#4889bb"/>
  </g>
  <g>
    <path d="M46.4,38.23c0,2.18-1.78,4-4,4h-2.24l6.24,7.44v.46h-3.93l-6.64-7.9h-7.56c-.25,0-.46-.03-.68-.06v7.96h-3.32v-22.1h18.13c2.21,0,4,1.81,4,4v6.21ZM42.41,38.91c.37,0,.68-.31.68-.68v-6.21c0-.37-.31-.68-.68-.68h-14.14c-.37,0-.68.31-.68.68v6.21c0,.37.31.68.68.68h14.14Z" fill="#4889bb"/>
    <path d="M70.01,31.32h-16.96v6.08h16.96v3.32h-16.96v6.08h16.96v3.32h-20.28v-22.13h20.28v3.32Z" fill="#4889bb"/>
    <path d="M167.98,31.32h-16.96v6.08h16.96v3.32h-16.96v6.08h16.96v3.32h-20.28v-22.13h20.28v3.32Z" fill="#4889bb"/>
    <path d="M18.13,28.03c2.21,0,4,1.81,4,4v6.21c0,2.18-1.78,4-4,4H4c-.25,0-.46-.03-.68-.06v7.96H0v-22.1h18.13ZM18.81,32.03c0-.37-.31-.68-.68-.68H4c-.37,0-.68.31-.68.68v6.21c0,.37.31.68.68.68h14.14c.37,0,.68-.31.68-.68v-6.21Z" fill="#4889bb"/>
    <path d="M77.2,31.32c-.37,0-.68.31-.68.68v14.14c0,.37.31.68.68.68h18.07v3.32h-18.07c-2.21,0-4-1.78-4-4v-14.14c0-2.21,1.78-4,4-4h18.07v3.32h-18.07Z" fill="#4889bb"/>
    <path d="M118.81,31.32h-16.96v6.08h13.64v3.32h-13.64v6.08h16.96v3.32h-20.28v-22.13h20.28v3.32Z" fill="#4889bb"/>
    <path d="M140.2,28c2.21,0,4,1.78,4,4v14.14c0,2.21-1.78,4-4,4h-18.13v-22.13h18.13ZM140.88,32c0-.37-.31-.68-.68-.68h-14.14c-.37,0-.68.31-.68.68v14.14c0,.37.31.68.68.68h14.14c.37,0,.68-.31.68-.68v-14.14Z" fill="#4889bb"/>
    <path d="M193.15,33.29h-3.32v-1.29c0-.37-.31-.68-.68-.68h-14.14c-.37,0-.68.31-.68.68v4.73c0,.37.31.68.68.68h14.14c2.21,0,4,1.78,4,4v4.73c0,2.21-1.78,4-4,4h-14.14c-2.21,0-4-1.78-4-4v-1.29h3.32v1.29c0,.37.31.68.68.68h14.14c.37,0,.68-.31.68-.68v-4.73c0-.37-.31-.68-.68-.68h-14.14c-2.21,0-4-1.78-4-4v-4.73c0-2.21,1.78-4,4-4h14.14c2.21,0,4,1.78,4,4v1.29Z" fill="#4889bb"/>
    <path d="M227.88,28l-10.2,13.83v8.3h-3.32v-8.3l-10.2-13.83h3.9l7.96,10.08,7.93-10.08h3.93Z" fill="#4889bb"/>
    <path d="M248.19,28c2.21,0,4,1.78,4,4v14.14c0,2.21-1.78,4-4,4h-14.14c-2.21,0-4-1.78-4-4v-14.14c0-2.21,1.78-4,4-4h14.14ZM248.19,46.81c.37,0,.68-.31.68-.68v-14.14c0-.37-.31-.68-.68-.68h-14.14c-.37,0-.68.31-.68.68v14.14c0,.37.31.68.68.68h14.14Z" fill="#4889bb"/>
    <path d="M274.31,28h3.32v18.13c0,2.21-1.78,4-4,4h-14.14c-2.21,0-4-1.78-4-4v-18.13h3.32v18.13c0,.37.31.68.68.68h14.14c.37,0,.68-.31.68-.68v-18.13Z" fill="#4889bb"/>
  </g>
</svg>